<svg width="108" height="108" viewBox="0 0 108 108" fill="none" xmlns="http://www.w3.org/2000/svg">
<g filter="url(#filter0_d)">
<circle cx="54" cy="50" r="50" fill="url(#paint0_linear)"/>
<path fill-rule="evenodd" clip-rule="evenodd" d="M82.4159 66.0294C82.1575 65.7711 81.8732 65.5387 81.5709 65.3388C81.1653 65.0707 80.6191 65.1822 80.3508 65.5878C80.0827 65.9934 80.1943 66.5397 80.5999 66.8078C81.6146 67.4787 82.2391 68.6332 82.2391 69.8537C82.2391 70.8281 81.8597 71.744 81.1707 72.433C80.4462 73.1575 79.4452 73.5473 78.4184 73.4973C78.1718 73.4866 77.9296 73.579 77.7543 73.7541C77.579 73.9294 77.4858 74.1705 77.4974 74.4182C77.5457 75.4427 77.1578 76.4459 76.4331 77.1705C74.995 78.6084 72.6966 78.5921 71.2748 77.1705C70.5857 76.4815 70.2064 75.5656 70.2064 74.5913C70.2064 73.6169 70.5857 72.701 71.2748 72.012C71.3315 71.9553 71.3919 71.8979 71.4532 71.8396C71.915 71.4006 72.4289 70.9121 71.819 70.3021L68.3395 66.8227L70.8229 64.3393L74.3023 67.8188C74.6743 68.1908 75.3289 68.1379 75.6372 67.7141C75.751 67.5574 75.8773 67.4096 76.0122 67.2746C76.4308 66.8559 76.9268 66.5538 77.4867 66.3766C77.9502 66.2298 78.2071 65.735 78.0604 65.2714C77.9137 64.8077 77.4187 64.5512 76.9552 64.6976C76.1881 64.9406 75.4763 65.3593 74.8871 65.9129L71.7756 62.8014C71.7756 62.8014 70.9584 60.7462 70.822 59.7787C70.5284 57.6955 70.4996 55.6228 70.5214 53.5316C70.5374 51.9911 70.5529 50.4472 70.4045 48.912C69.652 41.1269 65.705 34.2957 62.5265 29.936C59.7053 26.0665 56.1637 22.6399 55.8284 22.3156L55.8034 22.2914C53.4743 19.9621 49.7297 19.3857 45.259 20.6676C40.9688 21.898 36.4699 24.7117 32.5908 28.5908C28.7118 32.4698 25.898 36.9687 24.6677 41.259C23.3856 45.7296 23.9622 49.4743 26.2912 51.8034L26.3139 51.8268C26.6269 52.1512 30.0342 55.6819 33.9358 58.5264C37.5091 61.1315 41.4261 63.3236 45.6122 64.7726C46.8363 65.1964 48.0834 65.5548 49.3482 65.8351C51.3856 66.2867 53.4597 66.5224 55.5534 66.5285C56.0542 66.5299 56.5549 66.5278 57.0554 66.5257C59.2999 66.5162 61.5409 66.5066 63.7786 66.8219C64.6003 66.9376 66.1385 67.529 66.6124 67.7113L66.6128 67.7114C66.6967 67.7437 66.7471 67.7631 66.7543 67.7647L69.9129 70.8869C68.9651 71.8937 68.4452 73.2024 68.4452 74.5914C68.4452 76.036 69.0078 77.3942 70.0293 78.4158C71.0509 79.4374 72.4092 80 73.8537 80C75.2984 80 76.6566 79.4374 77.6783 78.4158C78.5415 77.5525 79.0824 76.423 79.2247 75.2247C80.4229 75.0824 81.5526 74.5414 82.4158 73.6783C83.4373 72.6567 83.9999 71.2985 83.9999 69.8538C84 68.4092 83.4374 67.0509 82.4159 66.0294ZM26.3604 41.7445C27.5098 37.7366 30.1647 33.5074 33.8361 29.8361C37.5073 26.1648 41.7365 23.5098 45.7444 22.3605C47.1439 21.9592 48.4498 21.7604 49.6345 21.7604C51.6903 21.7604 53.3806 22.3591 54.5581 23.5365C56.4141 25.3924 56.8318 28.5226 55.7342 32.3501C54.5849 36.3581 51.93 40.5873 48.2587 44.2585C44.5874 47.9299 40.3583 50.5849 36.3503 51.734C32.5224 52.8318 29.3927 52.4141 27.5367 50.5579C25.6805 48.7021 25.2629 45.5719 26.3604 41.7445ZM62.2908 64.8844C62.8686 64.9331 63.4461 64.9966 64.0242 65.078C65.0552 65.2233 65.9683 65.5498 66.7905 65.8812L69.8809 62.7908C69.5498 61.9685 69.2233 61.0552 69.078 60.0247C68.7977 58.0356 68.8013 56.0396 68.805 54.0444C68.8081 52.388 68.8111 50.7322 68.6516 49.0816C67.9387 41.7072 64.1671 35.1828 61.1286 31.008C60.0426 29.5157 58.9711 28.2107 58.0185 27.1266C58.218 28.8254 58.0246 30.7515 57.427 32.8357C56.1966 37.1258 53.3828 41.6248 49.5039 45.5039C45.6249 49.3828 41.1258 52.1965 36.8357 53.4269C35.2784 53.8735 33.8089 54.0946 32.457 54.0946C31.9993 54.0946 31.5556 54.0685 31.1259 54.018C32.2101 54.9707 33.5157 56.0425 35.0079 57.1286C38.9505 59.9978 43.0839 62.2531 47.7909 63.6195C50.9882 64.5476 53.9836 64.7975 57.3203 64.7499C58.99 64.7261 60.6409 64.7452 62.2908 64.8844Z" fill="white"/>
<path d="M37.3553 49.7043C40.6396 48.6008 44.1431 46.2981 47.2207 43.2206C50.2983 40.143 52.6008 36.6395 53.7045 33.3551C54.8776 29.8638 54.5701 26.9874 52.8388 25.2558C49.3769 21.7945 41.4863 24.262 34.8741 30.8737C33.8562 31.8916 32.9121 32.9685 32.0676 34.0748C31.7726 34.4614 31.8468 35.0139 32.2333 35.309C32.6201 35.604 33.1724 35.5298 33.4675 35.1433C34.2645 34.099 35.1567 33.0816 36.1194 32.119C41.8361 26.4023 48.9226 23.8297 51.5936 26.5011C52.8095 27.717 52.9706 30.0107 52.0354 32.7942C51.0168 35.8257 48.8646 39.0862 45.9756 41.9751C43.0867 44.8641 39.8262 47.0163 36.7947 48.0349C34.0115 48.97 31.7175 48.8093 30.5015 47.5931C28.8481 45.9397 29.1627 42.4315 31.3226 38.4377C31.5539 38.0099 31.3947 37.4757 30.9669 37.2445C30.5393 37.0129 30.0049 37.1723 29.7737 37.6001C27.19 42.3775 26.9966 46.5788 29.2564 48.8384C30.2966 49.8787 31.7499 50.405 33.5019 50.4049C34.6655 50.405 35.9617 50.1727 37.3553 49.7043Z" fill="white"/>
<path fill-rule="evenodd" clip-rule="evenodd" d="M47.9322 34.7865C46.5214 36.3254 44.8745 37.176 43.5366 37.176C42.901 37.176 42.3351 36.984 41.8972 36.5828C40.538 35.3365 41.0825 32.6849 43.1637 30.4147C44.0738 29.422 45.1452 28.6681 46.1807 28.2914C47.4093 27.8447 48.4811 27.9608 49.1986 28.6186C50.5578 29.8647 50.0134 32.5163 47.9322 34.7865ZM46.7825 29.9462C46.0195 30.2238 45.1736 30.8283 44.4618 31.6047C42.9825 33.2182 42.6549 34.8881 43.0873 35.2846C43.52 35.6809 45.1548 35.2098 46.6342 33.5964C47.3473 32.8184 48.0596 31.7855 48.1715 30.7035C48.2724 29.727 47.5503 29.6669 46.7825 29.9462Z" fill="white"/>
</g>
<defs>
<filter id="filter0_d" x="0" y="0" width="108" height="108" filterUnits="userSpaceOnUse" color-interpolation-filters="sRGB">
<feFlood flood-opacity="0" result="BackgroundImageFix"/>
<feColorMatrix in="SourceAlpha" type="matrix" values="0 0 0 0 0 0 0 0 0 0 0 0 0 0 0 0 0 0 127 0"/>
<feOffset dy="4"/>
<feGaussianBlur stdDeviation="2"/>
<feColorMatrix type="matrix" values="0 0 0 0 0 0 0 0 0 0 0 0 0 0 0 0 0 0 0.25 0"/>
<feBlend mode="normal" in2="BackgroundImageFix" result="effect1_dropShadow"/>
<feBlend mode="normal" in="SourceGraphic" in2="effect1_dropShadow" result="shape"/>
</filter>
<linearGradient id="paint0_linear" x1="155.661" y1="89.6632" x2="79.5658" y2="-68.0142" gradientUnits="userSpaceOnUse">
<stop stop-color="#7FB800"/>
<stop offset="1" stop-color="#0F9B0F"/>
</linearGradient>
</defs>
</svg>
