<svg width="100" height="100" viewBox="0 0 100 100" fill="none" xmlns="http://www.w3.org/2000/svg">
<circle cx="50" cy="50" r="50" fill="url(#paint0_linear)"/>
<path fill-rule="evenodd" clip-rule="evenodd" d="M77.0258 46.3992H77.9469C79.0999 46.3933 80.0627 47.4049 79.9967 48.5611C79.6869 53.9885 77.3945 59.0995 73.5416 62.9527C71.009 65.4846 67.9719 67.3271 64.6579 68.3892V70.8945C64.6579 74.2611 61.919 77 58.5525 77H41.4477C38.0811 77 35.3422 74.2611 35.3422 70.8945V68.3856C31.3105 67.0919 27.6964 64.6522 24.943 61.274C24.6363 60.8977 24.6927 60.3442 25.0689 60.0375C25.4454 59.7304 25.9989 59.7872 26.3055 60.1634C30.2544 65.0099 35.9512 67.6859 42.1325 67.6874H57.8676C63.3481 67.6728 68.3632 65.6456 72.2986 61.7099C75.8459 58.1621 77.9565 53.4569 78.2417 48.4608C78.2519 48.2815 78.1407 48.1638 77.9469 48.1569H22.0534C21.8614 48.163 21.7482 48.282 21.7584 48.4606C21.9288 51.4435 22.7286 54.2861 24.1355 56.9096C24.365 57.3374 24.2042 57.8701 23.7765 58.0995C23.3489 58.3292 22.816 58.1683 22.5866 57.7405C21.0576 54.8898 20.1886 51.8013 20.0036 48.5611C19.9377 47.405 20.8941 46.3927 22.0534 46.3992H29.1311C28.9579 45.8215 28.7485 45.2917 28.4445 44.9176C28.0515 44.4334 27.2506 44.0656 26.4027 43.6762L26.4024 43.6761L26.4024 43.6761C25.1869 43.1179 23.8094 42.4853 23.1624 41.2227C22.5152 39.9606 22.8064 38.4727 23.0632 37.1599L23.0633 37.1597L23.0634 37.1591C23.2424 36.2439 23.4115 35.3795 23.2487 34.7789C23.0499 34.0478 22.4045 33.2821 21.7804 32.5415L21.7804 32.5415L21.7804 32.5415L21.78 32.5409L21.7799 32.5409C20.9103 31.5091 20.011 30.4421 20.0001 29.1539C19.9866 27.5291 21.1175 26.3102 22.1152 25.2349C22.6665 24.6409 23.187 24.0799 23.3916 23.5807C23.635 22.9875 23.754 22.1933 23.8688 21.4251C24.1043 19.8504 24.3713 18.0656 25.8586 17.304C27.3453 16.542 28.9497 17.3672 30.3655 18.0954L30.3659 18.0956C31.0565 18.4509 31.7705 18.8182 32.3939 18.9669C32.9188 19.092 33.678 18.9971 34.4817 18.8965L34.4823 18.8964C35.938 18.7143 37.588 18.5079 38.8989 19.4677C39.938 20.2295 40.2789 21.5822 40.6085 22.8903C40.8452 23.8297 41.09 24.8009 41.5678 25.3901C41.9028 25.802 42.5356 26.1301 43.241 26.4595C43.4704 24.947 43.7824 23.3011 45.1941 22.5776C46.6812 21.8152 48.2852 22.6404 49.701 23.3687L49.7019 23.3692C50.3925 23.7245 51.1065 24.0917 51.7298 24.2404C52.2543 24.3658 53.0129 24.2708 53.8164 24.1702L53.8176 24.17L53.8182 24.1699C55.2739 23.9878 56.924 23.7814 58.2349 24.7413C59.274 25.503 59.6149 26.8557 59.9444 28.1639C60.1811 29.1033 60.4259 30.0745 60.9037 30.6636C61.2962 31.1461 62.0968 31.5137 62.9444 31.9029L62.9446 31.9029C64.1604 32.4611 65.5383 33.0937 66.1855 34.3567C66.8324 35.6192 66.5417 37.1063 66.2852 38.4185L66.2851 38.419L66.2849 38.4197C66.1059 39.3353 65.9368 40.2 66.1003 40.8014C66.2655 41.4098 66.7394 42.0417 67.2532 42.663C67.6814 41.4008 68.0686 40.115 68.4076 38.8235C68.5309 38.354 69.011 38.0733 69.4808 38.1964C69.9502 38.3197 70.231 38.8002 70.1077 39.2696C69.6635 40.9623 69.1392 42.6454 68.5489 44.2811C69.0006 44.9348 69.3327 45.6274 69.3465 46.3993H75.2485C75.1604 45.7624 75.1337 45.1113 75.2966 44.5115C75.5785 43.4732 76.2982 42.6191 76.9944 41.7931L76.9946 41.7928L76.9956 41.7916L76.9956 41.7916C77.6062 41.0669 78.2375 40.3177 78.2423 39.7365C78.2492 38.9056 77.4805 38.077 76.737 37.2757C76.1469 36.6398 75.5368 35.9824 75.2307 35.2366C74.9282 34.4988 74.8029 33.6614 74.6818 32.8515C74.5088 31.6945 74.3455 30.6018 73.7431 30.2931C73.14 29.9841 72.1574 30.4898 71.1169 31.0253L71.1165 31.0255C70.3889 31.4 69.6364 31.7872 68.8618 31.9725C68.1555 32.141 67.3723 32.0679 66.6311 31.9782C66.1493 31.9201 65.8058 31.4822 65.8639 31.0003C65.9222 30.5184 66.3607 30.1749 66.842 30.2332C67.3995 30.3006 68.0298 30.3638 68.4534 30.2628C69.0209 30.127 69.6774 29.7893 70.3121 29.4626C71.6369 28.7808 73.1379 28.0084 74.5449 28.7287C75.9505 29.4494 76.2001 31.1186 76.4203 32.5915L76.4205 32.5929C76.5261 33.2988 76.6353 34.0288 76.857 34.5692C77.042 35.0199 77.5192 35.5343 78.0245 36.0789L78.0255 36.08C78.9572 37.084 80.0129 38.2218 80.0001 39.7511C79.9899 40.9661 79.1505 41.9621 78.3386 42.9254L78.3386 42.9255L78.3385 42.9255C77.7655 43.6055 77.173 44.3087 76.9929 44.9721C76.8903 45.3497 76.9365 45.8591 77.0258 46.3992ZM34.9822 35.908C36.4801 39.5529 38.3513 43.0796 40.5453 46.3992V46.3993H42.0843C41.7874 45.5823 41.6328 44.7153 41.6328 43.8361C41.6328 40.9722 43.2468 38.4791 45.6126 37.216C45.3877 36.8447 45.1877 36.432 45.0676 35.9878C44.7969 34.9916 45.0139 33.8818 45.2238 32.8084L45.2238 32.8083L45.2238 32.8081C45.4355 31.7254 45.6543 30.6058 45.285 29.8849C44.9155 29.1638 43.8782 28.6876 42.875 28.227C41.8816 27.7711 40.8545 27.2995 40.2031 26.4984C39.4801 25.6071 39.1871 24.4443 38.9039 23.3199L38.9037 23.3193C38.6502 22.3132 38.388 21.2729 37.8601 20.8859C37.1129 20.3389 35.8861 20.4924 34.6999 20.6409L34.6986 20.6411C33.7748 20.7566 32.8196 20.876 31.9857 20.6769C31.1555 20.4788 30.3452 20.062 29.5616 19.6589L29.5594 19.6577C28.4195 19.0714 27.3437 18.518 26.6599 18.8684C25.976 19.2187 25.7968 20.4167 25.6071 21.6851L25.6071 21.6852L25.6069 21.6862V21.6862C25.4765 22.5575 25.3417 23.4583 25.0177 24.2478C24.6922 25.0416 24.0373 25.7475 23.4039 26.4302L23.4039 26.4302L23.4037 26.4304C22.5907 27.3067 21.7501 28.2127 21.7578 29.1391C21.7633 29.7936 22.455 30.6144 23.1239 31.4081C23.8713 32.2949 24.644 33.2117 24.945 34.3181C25.2152 35.3147 24.9983 36.4237 24.7885 37.4962L24.7883 37.4972L24.7882 37.4974C24.5764 38.5805 24.3573 39.7005 24.7266 40.4208C25.0962 41.1419 26.1331 41.618 27.1359 42.0786L27.136 42.0786C28.1301 42.5351 29.1579 43.0071 29.8091 43.8093C30.4065 44.5445 30.7099 45.4665 30.9573 46.3992H38.4498C36.4626 43.2704 34.7524 39.9731 33.3563 36.5763C32.2981 34.003 31.4012 31.3243 30.6907 28.6147C30.5676 28.1451 30.8484 27.6648 31.318 27.5416C31.7874 27.4187 32.2678 27.6993 32.3911 28.1689C33.0818 30.8031 33.9535 33.4067 34.9822 35.908ZM54.2711 46.3992H43.9946C43.5988 45.6067 43.3906 44.7299 43.3906 43.8359C43.3906 40.6697 45.9665 38.0938 49.1328 38.0938C52.2991 38.0938 54.875 40.6697 54.875 43.8359C54.8751 44.73 54.6669 45.6068 54.2711 46.3992ZM56.1814 46.3992H60.4118C60.8076 45.6068 61.0157 44.73 61.0156 43.8359C61.0156 40.6697 58.4397 38.0938 55.2734 38.0938C54.8705 38.0938 54.4766 38.1364 54.0922 38.2166C55.6487 39.5919 56.6328 41.6006 56.6328 43.8359C56.6328 44.7153 56.4784 45.5822 56.1814 46.3992ZM62.322 46.3992C62.619 45.5822 62.7736 44.7153 62.7736 43.8359C62.7736 39.7004 59.4091 36.3359 55.2736 36.3359C54.2131 36.3359 53.159 36.5624 52.1986 36.9937C51.2619 36.5724 50.2248 36.3359 49.1329 36.3359C48.4957 36.3359 47.8768 36.4165 47.2856 36.5667C47.0647 36.2444 46.8614 35.8862 46.7643 35.5277C46.6009 34.9264 46.77 34.0616 46.949 33.1461L46.949 33.146L46.9491 33.1453L46.9492 33.1448C47.2057 31.8327 47.4964 30.3455 46.8495 29.083C46.4272 28.2589 45.6935 27.704 44.8972 27.2624C44.9105 27.1747 44.9238 27.0859 44.9371 26.9963C45.1143 25.8082 45.3104 24.493 45.9961 24.1418C46.68 23.7914 47.756 24.3449 48.8961 24.9314L48.8977 24.9322C49.6814 25.3353 50.4917 25.7522 51.3219 25.9502C52.1557 26.1493 53.1106 26.0299 54.0343 25.9144L54.0361 25.9142C55.2222 25.7658 56.4491 25.6124 57.1963 26.1593C57.7242 26.5464 57.9864 27.5866 58.2399 28.5927L58.2399 28.5928L58.24 28.5933C58.5233 29.7177 58.8163 30.8804 59.5393 31.7717C60.1906 32.5728 61.2178 33.0444 62.2112 33.5004C63.2144 33.9609 64.2516 34.4372 64.6211 35.1582C64.9905 35.8791 64.7716 36.9988 64.56 38.0814L64.56 38.0816L64.5599 38.0817C64.3501 39.1551 64.1331 40.2649 64.404 41.2619C64.7045 42.369 65.4774 43.2862 66.225 44.1732C66.8797 44.9501 67.5545 45.7526 67.5871 46.3992H62.322ZM58.5525 75.2422C60.9498 75.2422 62.9001 73.2918 62.9001 70.8945H62.9V68.8733C61.2688 69.2503 59.5832 69.4452 57.8676 69.4452H42.1325C40.4179 69.4452 38.7317 69.2484 37.1001 68.8701V70.8945C37.1001 73.2918 39.0505 75.2422 41.4478 75.2422H58.5525Z" fill="white"/>
<defs>
<linearGradient id="paint0_linear" x1="151.661" y1="89.6632" x2="75.5658" y2="-68.0142" gradientUnits="userSpaceOnUse">
<stop stop-color="#7FB800"/>
<stop offset="1" stop-color="#0F9B0F"/>
</linearGradient>
</defs>
</svg>
