<svg width="126" height="126" viewBox="0 0 126 126" fill="none" xmlns="http://www.w3.org/2000/svg">
<circle cx="63" cy="63" r="63" fill="white"/>
<path fill-rule="evenodd" clip-rule="evenodd" d="M84.662 93.1453C84.2863 92.6594 83.5941 92.574 83.115 92.9545C78.4908 96.6271 72.9339 98.5686 67.0449 98.5686C65.0781 98.5686 63.1335 98.3466 61.2381 97.9095C62.7508 97.0243 64.1719 95.9588 65.4709 94.7225C69.7048 90.6933 72.2514 85.249 72.6414 79.393C72.688 78.6952 72.445 78.0025 71.9746 77.4919C71.5054 76.9826 70.842 76.6906 70.1548 76.6906H66.9778H60.7036C60.0949 76.6906 59.6017 77.1907 59.6017 77.8079C59.6017 78.4251 60.0949 78.9252 60.7036 78.9252H65.8385C65.5861 82.6868 64.0669 86.1008 61.7124 88.733L52.0406 78.9252H56.1126C56.7212 78.9252 57.2144 78.4251 57.2144 77.8079C57.2144 77.1907 56.7212 76.6906 56.1126 76.6906H41.3463C41.0876 75.1881 40.9548 73.6516 40.9548 72.1101C40.9548 65.7106 43.238 59.5343 47.3836 54.7189C47.7839 54.254 47.7366 53.5482 47.2782 53.1422C46.82 52.7366 46.1238 52.7844 45.7236 53.2492C41.2273 58.4719 38.7511 65.1702 38.7511 72.1102C38.7511 73.6493 38.8729 75.1842 39.1112 76.6907H32.6695H29.4925C28.8056 76.6907 28.1424 76.9827 27.673 77.4916C27.2026 78.0022 26.9593 78.6949 27.0056 79.393C27.3956 85.2493 29.9422 90.6936 34.1764 94.7227C38.4303 98.7707 43.9871 101 49.8237 101C52.7396 101 55.5857 100.443 58.2346 99.3818C58.2397 99.3838 58.2448 99.3858 58.2498 99.3879C58.2572 99.391 58.2647 99.394 58.2725 99.3966C61.096 100.33 64.0476 100.803 67.0451 100.803C73.4315 100.803 79.4582 98.6976 84.4741 94.7139C84.9532 94.3334 85.0374 93.6311 84.662 93.1453ZM50.9254 80.9551L60.1236 90.2826C57.5977 92.4305 54.4129 93.806 50.9254 94.0469V80.9551ZM40.4225 78.9257L40.4137 78.9252H33.8088C34.0612 82.6868 35.5803 86.1009 37.9349 88.733L47.6067 78.9252H40.45C40.4446 78.9254 40.439 78.9261 40.4336 78.9261C40.4298 78.9261 40.4262 78.9259 40.4226 78.9257L40.4225 78.9257ZM48.7217 80.9552V94.0471C45.2341 93.8062 42.0493 92.4307 39.5234 90.2827L48.7217 80.9552ZM29.2044 79.2423C29.9336 90.1896 38.9906 98.7652 49.8237 98.7652C60.6569 98.7652 69.7138 90.1896 70.4427 79.2423C70.4504 79.1289 70.397 79.0529 70.3646 79.0176C70.3256 78.9754 70.2576 78.9252 70.1548 78.9252H68.0454C67.4736 88.6148 59.5201 96.3205 49.8237 96.3205C40.1273 96.3205 32.1737 88.6148 31.6019 78.9252H29.4925C29.3897 78.9252 29.3218 78.9754 29.2829 79.0176C29.2504 79.0529 29.1968 79.129 29.2044 79.2423Z" fill="#7FB800"/>
<path fill-rule="evenodd" clip-rule="evenodd" d="M99.9914 40.4212C100.041 40.024 99.8746 39.6306 99.5548 39.3896C96.6264 37.1815 93.072 36.0676 89.5059 36.1204C89.3986 36.1077 89.293 36.1102 89.1911 36.1272C87.2376 36.1939 85.286 36.6109 83.4372 37.3926C82.6119 37.7415 81.8246 38.1559 81.0804 38.6281C81.018 38.661 80.9589 38.6996 80.9038 38.7436C80.6732 38.8943 80.446 39.0494 80.224 39.2109C80.11 38.1184 79.8875 37.036 79.5508 35.9743C77.8036 30.4692 73.2096 26.2742 67.5611 25.0265C67.1706 24.9398 66.7626 25.0691 66.4928 25.3649C64.0205 28.0739 62.5801 31.5077 62.3012 35.0616C62.2789 35.1666 62.2715 35.2714 62.2789 35.3739C62.1634 37.3245 62.3975 39.3061 63.0045 41.219C63.2744 42.0701 63.6127 42.8897 64.0118 43.6721C64.0381 43.7368 64.0702 43.7988 64.1079 43.8573C58.4828 44.4099 53.226 46.578 48.8077 50.1858C48.3291 50.5767 48.258 51.2814 48.6491 51.7598C48.8704 52.0304 49.1921 52.1707 49.5165 52.1707C49.7656 52.1707 50.0162 52.0881 50.2239 51.9185C54.5915 48.3522 59.8475 46.3113 65.4582 45.9963C67.7613 49.084 71.1307 51.3164 74.9943 52.1688C75.0745 52.1865 75.1553 52.1952 75.2355 52.1952C75.2405 52.1952 75.2454 52.195 75.2504 52.1947L75.2594 52.1941C75.2652 52.1937 75.2709 52.1933 75.2767 52.1931C77.8825 53.8134 80.8762 54.648 83.8892 54.648C84.7351 54.648 85.5823 54.5812 86.4228 54.4489C90.9721 59.3584 93.4764 65.7392 93.4764 72.4405C93.4764 79.0491 91.0275 85.3782 86.5809 90.2619C86.1649 90.7187 86.1983 91.4262 86.6553 91.8421C86.8699 92.0371 87.1394 92.1333 87.4083 92.1333C87.7124 92.1333 88.0154 92.0101 88.2363 91.7676C93.0587 86.4711 95.7146 79.6072 95.7146 72.4405C95.7146 65.5893 93.3013 59.0465 88.8912 53.8587C89.3321 53.7158 89.769 53.5546 90.1999 53.3724C95.5223 51.1215 99.2738 46.1593 99.9914 40.4212ZM94.9444 46.9755L91.5487 44.5972L97.3713 42.1353C96.8815 43.9031 96.0502 45.545 94.9444 46.9755ZM96.4998 40.0747C94.5885 39.0301 92.4696 38.4525 90.3236 38.3651L89.5631 43.0078L96.4998 40.0747ZM82.6434 40.2947C83.1758 39.9796 83.7315 39.6971 84.3092 39.4528C85.5147 38.9432 86.771 38.614 88.0402 38.4585L87.1261 44.0381L81.8733 46.2591L82.6434 40.2947ZM77.6016 37.2846C77.5449 37.0725 77.484 36.861 77.4176 36.6506C76.9141 35.0646 76.136 33.6054 75.1421 32.3242L71.7338 36.3327L73.4732 41.8164L77.6016 37.2846ZM73.6205 30.6589L70.9355 33.8168L69.0249 27.7932C70.7402 28.4453 72.2985 29.4253 73.6205 30.6589ZM69.1674 35.645L66.8911 28.4689C65.6727 30.2738 64.9003 32.3287 64.6135 34.4562L69.1674 35.645ZM65.8214 42.2792C65.5571 41.7199 65.3278 41.1405 65.1383 40.5428C64.7425 39.2958 64.5314 38.0151 64.4944 36.7375L69.9671 38.1662L71.6909 43.6003L65.8214 42.2792ZM72.4741 46.0697L67.4702 44.9434C69.0372 46.9368 71.1309 48.4894 73.5308 49.4013L72.4741 46.0697ZM74.8095 46.0293L74.255 44.2813L78.0525 40.1128C78.0706 40.4378 78.0767 40.7636 78.0717 41.0898C76.6967 42.5199 75.5882 44.1945 74.8095 46.0293ZM79.4862 47.2684L80.1425 42.1844C78.303 43.9295 76.9502 46.157 76.2652 48.6303L79.4862 47.2684ZM77.1377 50.6905L81.4334 48.874L85.9339 52.2615C82.9266 52.7043 79.8267 52.1594 77.1377 50.6905ZM83.8159 47.8667L88.7128 51.5527C88.9191 51.4767 89.1245 51.3975 89.3282 51.3115C90.8615 50.6632 92.2431 49.7529 93.427 48.6445L89.1166 45.6256L83.8159 47.8667Z" fill="#7FB800"/>
</svg>
